<?xml version="1.0" standalone="no"?>
<!DOCTYPE svg PUBLIC "-//W3C//DTD SVG 20010904//EN"
 "http://www.w3.org/TR/2001/REC-SVG-20010904/DTD/svg10.dtd">
<svg version="1.0" xmlns="http://www.w3.org/2000/svg"
 width="460.000000pt" height="460.000000pt" viewBox="0 0 460.000000 460.000000"
 preserveAspectRatio="xMidYMid meet">
<metadata>
Created by potrace 1.16, written by Peter Selinger 2001-2019
</metadata>
<g transform="translate(0.000000,460.000000) scale(0.100000,-0.100000)"
fill="#000000" stroke="none">
<path d="M2302 3819 c-46 -18 -57 -38 -54 -101 3 -52 1 -58 -16 -58 -27 0 -36
-14 -67 -107 -25 -76 -26 -88 -16 -150 19 -128 21 -207 7 -298 -8 -49 -11 -93
-7 -97 3 -3 15 -8 26 -10 17 -3 20 -10 18 -48 -10 -224 -15 -311 -19 -347 -6
-48 23 -39 -224 -68 -379 -45 -616 -66 -1065 -95 -82 -5 -170 -12 -195 -15
-41 -5 -52 -1 -114 40 -38 25 -73 45 -78 45 -5 0 -21 9 -37 21 -26 19 -32 20
-92 8 -78 -14 -106 -38 -114 -94 -4 -23 -10 -47 -14 -54 -7 -11 -144 -30 -218
-31 -22 0 -23 -4 -23 -69 l0 -70 43 4 c23 2 73 9 110 16 54 10 72 10 91 0 38
-21 317 0 388 28 18 8 11 10 -37 12 -55 2 -52 3 35 11 91 8 114 7 169 -6 14
-3 36 -2 50 2 23 6 20 7 -19 12 -25 4 34 6 130 5 182 -2 245 4 180 16 -19 4 8
5 60 3 69 -2 84 -1 55 5 -28 6 -9 8 65 6 78 -3 93 -1 60 5 l-45 8 58 -1 c31
-1 58 1 60 5 2 6 71 12 277 23 61 3 62 3 15 -4 l-50 -8 43 -1 c23 -1 59 5 79
13 19 8 41 15 47 14 6 0 2 -4 -9 -9 -19 -8 -19 -9 3 -9 12 -1 22 4 22 9 0 13
37 13 45 0 3 -6 16 -8 28 -6 12 3 58 8 102 12 63 6 74 9 50 15 -28 6 -27 7 13
8 l42 1 0 -58 c0 -34 6 -66 14 -77 9 -13 11 -27 5 -42 -10 -26 3 -69 23 -76 7
-2 9 -8 5 -13 -4 -5 -12 -2 -17 6 -14 23 -35 -2 -22 -26 6 -11 13 -48 16 -84
13 -154 19 -207 26 -247 4 -23 4 -47 -1 -54 -10 -17 0 -39 20 -39 14 0 14 -2
1 -10 -8 -5 -10 -10 -5 -11 6 0 1 -4 -10 -9 -18 -7 -18 -8 8 -15 33 -9 36 -35
5 -36 -18 -1 -19 -2 -5 -6 9 -2 15 -9 12 -14 -4 -5 1 -9 10 -9 9 0 13 -4 10
-10 -3 -5 -1 -19 6 -31 10 -20 9 -21 -7 -15 -15 5 -14 1 5 -14 13 -11 18 -20
12 -20 -6 0 -11 -7 -11 -15 0 -8 -5 -15 -11 -15 -5 0 -7 5 -3 11 5 8 1 8 -14
0 -11 -6 -32 -11 -46 -11 -14 0 -26 -4 -26 -9 0 -22 -102 -50 -197 -54 -12 -1
-21 -5 -20 -10 1 -4 -35 -10 -80 -11 -46 -2 -88 -8 -95 -14 -11 -8 -416 -31
-583 -32 -64 0 -105 -5 -128 -15 -9 -4 -17 -3 -17 1 0 5 -55 7 -122 5 -170 -6
-657 -5 -747 2 -40 3 -78 10 -84 16 -6 6 -28 11 -49 11 l-38 0 0 -680 0 -680
2300 0 2299 0 1 1233 0 1232 -147 -7 c-82 -3 -276 -9 -433 -13 -157 -3 -296
-8 -310 -12 -31 -7 -42 -9 -105 -13 -32 -2 -41 -4 -25 -8 52 -10 -66 -28 -169
-27 -76 2 -101 -1 -105 -11 -4 -10 4 -14 29 -14 25 0 33 -4 29 -14 -5 -13 33
-26 79 -27 10 0 23 -9 30 -20 6 -10 22 -19 34 -19 12 0 34 -5 48 -10 23 -9 25
-13 15 -25 -10 -13 -9 -15 11 -17 13 0 36 0 52 1 15 1 27 -3 27 -8 0 -7 24
-11 58 -11 40 0 53 -3 42 -10 -11 -7 -5 -10 23 -10 20 0 37 -5 37 -11 0 -6 -8
-8 -19 -4 -11 3 -22 1 -26 -5 -3 -5 1 -10 9 -10 29 0 16 -41 -16 -53 -28 -10
-21 -27 11 -27 16 0 45 -7 64 -15 43 -18 114 -21 85 -4 -33 19 -18 29 40 28
43 -1 50 -3 27 -8 -44 -9 -27 -26 25 -24 35 1 40 -1 20 -7 -22 -7 -22 -8 -5
-11 11 -1 0 -5 -25 -9 -36 -6 -39 -7 -14 -8 17 -1 48 -10 68 -20 l38 -19 -48
-7 c-30 -4 -50 -2 -52 4 -5 14 -28 13 -53 -3 -16 -9 -23 -9 -26 -1 -5 15 -40
6 -47 -12 -3 -8 -1 -14 3 -14 5 0 17 -3 27 -7 13 -5 15 -3 9 7 -6 9 -4 11 4 5
21 -12 -4 -28 -30 -19 -13 4 -35 7 -49 7 -23 -1 -23 -1 -2 4 12 2 20 8 17 13
-3 5 4 14 15 20 27 14 26 32 -2 28 -13 -2 -22 -9 -20 -16 2 -14 -24 -16 -33
-2 -3 6 -21 10 -38 10 -24 0 -28 3 -17 10 12 8 9 10 -12 10 -15 0 -30 5 -33
10 -3 6 -15 10 -26 10 -10 0 -19 -4 -19 -10 0 -5 -7 -10 -16 -10 -19 0 -74
-31 -74 -42 0 -4 7 -8 16 -8 8 0 12 4 9 10 -11 17 31 11 56 -9 13 -10 31 -21
39 -24 8 -3 -4 -6 -27 -6 -24 -1 -43 4 -43 9 0 6 -12 10 -27 10 -19 0 -24 -3
-15 -8 20 -13 3 -42 -24 -42 -13 0 -24 -5 -24 -11 0 -8 -15 -10 -47 -5 -36 4
-44 3 -33 -5 13 -9 12 -10 -3 -5 -10 3 -21 6 -23 6 -3 0 -2 5 1 10 8 13 -1 13
-25 -2 -25 -16 -40 0 -17 17 18 13 17 14 -10 17 l-28 4 25 11 c24 11 23 12
-15 14 -38 2 -88 2 -145 -1 -22 0 -23 -2 -8 -11 10 -5 30 -9 45 -7 19 2 27 -1
25 -10 -1 -8 2 -11 8 -7 5 3 18 1 27 -5 14 -8 14 -10 3 -9 -8 1 -21 1 -29 0
-26 -2 21 -30 50 -31 15 0 29 -7 33 -15 3 -8 12 -15 21 -15 8 0 15 -4 15 -10
0 -15 31 -12 51 6 12 11 22 13 36 6 10 -6 41 -17 68 -25 49 -16 49 -16 10 -12
l-40 4 38 -10 c32 -10 37 -14 31 -32 -6 -20 -5 -20 10 -8 26 22 31 4 5 -19
-22 -20 -23 -21 -3 -15 12 3 32 1 45 -4 18 -7 20 -10 6 -10 -10 -1 -15 -6 -12
-11 3 -6 1 -10 -4 -10 -6 0 -11 -5 -11 -12 0 -9 3 -9 12 0 15 15 48 16 48 2 0
-6 -3 -9 -7 -8 -5 1 -24 -2 -43 -6 -19 -4 -43 -8 -52 -10 -10 -1 -20 -5 -23
-8 -3 -3 -40 -4 -83 -2 -55 2 -67 0 -42 -5 l35 -8 -32 -2 c-18 0 -33 -6 -33
-12 0 -5 -4 -7 -10 -4 -5 3 -10 2 -10 -2 0 -5 -39 -15 -87 -22 -49 -7 -94 -18
-100 -23 -7 -6 -13 -7 -13 -4 0 4 -8 2 -18 -3 -10 -5 -58 -11 -105 -12 -48 -1
-85 -5 -82 -9 5 -8 -142 -20 -242 -20 -58 0 -63 -2 -64 -22 -1 -18 -2 -19 -6
-5 -2 9 -9 15 -14 12 -5 -4 -9 -2 -9 4 0 5 6 12 13 14 7 4 6 6 -4 6 -23 1 -32
91 -9 91 12 1 12 3 -2 14 -25 19 -23 24 15 35 l32 9 -30 1 c-23 1 -27 4 -15
11 12 8 10 10 -10 10 -18 0 -21 3 -11 9 11 7 10 11 -5 20 -14 8 -15 11 -4 11
9 0 11 3 5 8 -5 4 -11 15 -11 24 -1 14 4 17 25 13 l26 -5 -25 11 c-21 10 -22
13 -7 16 9 3 15 8 12 13 -3 4 -13 6 -24 3 -16 -4 -18 0 -16 31 2 20 -1 36 -6
36 -6 0 -5 8 1 20 8 15 8 20 -2 21 -7 0 -4 4 7 9 l20 9 -20 0 c-15 1 -17 3 -6
10 10 6 10 10 1 16 -9 6 -9 10 1 16 11 7 10 9 -3 9 -17 0 -17 1 -1 19 9 11 23
17 31 13 10 -4 13 -1 8 7 -5 8 -18 10 -32 7 -23 -6 -29 0 -25 31 1 6 -6 14
-16 16 -16 4 -15 5 2 6 11 1 27 6 35 12 11 8 8 9 -14 4 -26 -5 -27 -5 -12 10
11 11 21 13 33 7 26 -13 102 -24 83 -12 -20 13 0 12 39 -1 17 -6 31 -15 31
-21 0 -5 9 -6 20 -3 15 5 20 2 20 -10 0 -11 5 -15 14 -12 8 3 17 3 20 0 3 -4
18 -7 33 -9 16 -1 22 0 16 3 -19 7 -16 23 5 23 10 0 23 5 30 12 6 6 32 11 57
10 31 0 48 4 52 14 3 8 9 11 14 8 12 -7 79 17 79 28 0 5 17 6 38 3 27 -5 33
-4 22 4 -13 9 -13 11 0 11 9 0 20 -4 25 -9 15 -15 99 -31 108 -22 11 11 -48
25 -65 15 -9 -5 -10 -4 -3 3 22 23 54 24 75 3 20 -20 47 -19 35 1 -4 5 4 10
17 10 19 1 18 3 -7 8 -29 7 -29 7 13 14 26 4 51 3 63 -3 11 -6 28 -9 37 -7 16
4 16 5 0 6 -34 2 -18 18 24 25 32 5 39 9 29 19 -9 9 -14 9 -20 -2 -5 -7 -13
-11 -18 -8 -5 3 -47 7 -93 8 -47 1 -91 7 -97 12 -9 6 -13 6 -13 -2 0 -7 -9 -9
-25 -5 -14 3 -25 2 -25 -4 0 -5 -23 -8 -52 -7 -36 2 -58 -2 -70 -12 -11 -10
-18 -11 -23 -3 -4 6 -14 9 -23 6 -10 -3 -57 -7 -105 -10 -48 -3 -93 -8 -98
-12 -6 -3 -69 -7 -140 -8 -109 -2 -130 0 -134 13 -3 9 -16 28 -30 44 -14 15
-22 27 -18 27 4 0 2 4 -5 8 -15 10 -20 118 -6 131 5 5 61 12 124 15 63 4 178
11 255 16 77 5 163 8 190 7 28 -1 122 1 210 5 92 3 139 3 110 -2 -27 -5 -72
-9 -99 -9 -27 -1 -47 -4 -44 -7 4 -3 93 -1 200 5 248 15 427 18 421 9 -2 -5 1
-8 6 -8 6 0 11 4 11 8 0 11 40 12 61 1 12 -6 20 -5 24 1 5 8 11 8 20 0 7 -6
16 -7 18 -3 8 13 110 15 117 2 5 -7 12 -6 22 4 10 10 20 12 29 6 12 -7 50 -11
109 -9 8 1 60 5 115 9 55 5 112 9 128 10 l27 1 0 108 0 108 -82 -8 c-46 -4
-177 -10 -293 -13 -161 -5 -226 -11 -280 -25 -104 -28 -213 -38 -375 -34 -80
1 -215 -1 -300 -6 -344 -19 -697 -33 -712 -28 -13 5 -14 14 -7 50 4 24 4 81
-1 128 -5 47 -11 124 -14 172 l-4 86 30 13 c34 14 34 13 -1 139 -20 74 -19 82
13 93 20 7 18 111 -3 167 -39 101 -66 150 -83 156 -10 3 -18 10 -18 15 0 5 -6
9 -14 9 -26 0 -36 25 -28 71 9 48 -7 104 -37 126 -19 14 -56 16 -89 2z m83
-1034 c3 -27 11 -79 19 -114 19 -93 15 -101 -51 -101 -49 0 -54 2 -48 18 4 9
13 51 20 92 7 41 18 95 24 120 6 25 11 61 12 80 l1 35 9 -40 c4 -22 11 -62 14
-90z m25 -399 c0 -24 7 -60 15 -79 8 -20 15 -53 15 -72 0 -20 4 -44 9 -54 12
-21 -7 -24 -95 -16 -74 8 -75 10 -67 157 7 107 5 105 81 107 l42 1 0 -44z
m-63 -249 c-5 8 3 12 25 11 45 0 64 -6 66 -21 8 -74 6 -142 -5 -153 -11 -10
-9 -13 7 -16 18 -3 19 -5 6 -30 -11 -20 -12 -28 -3 -28 15 0 18 -92 3 -102 -8
-5 -7 -8 2 -8 16 0 16 -46 -1 -53 -7 -3 -24 4 -38 15 -13 11 -18 17 -11 13 6
-3 12 -1 12 4 0 6 -4 11 -10 11 -5 0 -10 7 -10 15 0 8 -12 18 -27 21 l-27 7
25 10 c23 9 23 9 4 17 l-20 9 20 0 c11 1 27 6 35 12 12 8 10 9 -7 4 -14 -4
-23 -2 -23 5 0 7 -8 9 -21 5 -19 -6 -20 -5 -9 15 9 16 9 25 -1 36 -9 11 -8 14
7 14 16 1 15 3 -6 15 -15 9 -19 14 -10 15 10 0 11 3 4 8 -12 8 -33 86 -32 117
1 33 18 48 36 33 11 -9 14 -9 9 -1z"/>
<path d="M324 2043 c4 -10 4 -14 0 -10 -4 4 -13 2 -21 -4 -10 -9 -17 -8 -28 1
-13 10 -15 9 -15 -10 0 -15 -5 -20 -14 -17 -7 3 -18 1 -24 -5 -6 -6 -16 -7
-23 -2 -14 8 -42 8 -141 -2 l-58 -6 0 -34 c0 -19 5 -34 11 -34 8 0 7 -5 -2
-16 -10 -13 -10 -17 2 -25 10 -6 10 -9 2 -9 -7 0 -13 -4 -13 -10 0 -5 8 -10
18 -10 20 1 62 33 62 49 0 5 20 22 44 36 37 22 54 25 111 23 57 -2 64 -4 49
-15 -23 -17 -86 -17 -103 0 -11 10 -14 10 -18 0 -3 -7 -11 -13 -19 -13 -19 0
-18 -19 1 -26 8 -4 12 -10 9 -15 -9 -15 13 -10 26 6 14 17 56 20 65 6 3 -5 -5
-12 -17 -14 -15 -3 -10 -5 14 -6 20 0 40 -6 43 -11 6 -10 80 -7 160 6 17 3 59
7 93 10 62 6 63 5 52 -15 -10 -19 -8 -21 17 -21 23 0 25 -2 13 -11 -25 -17
128 -4 172 16 10 4 16 10 14 14 -2 3 19 5 47 4 l52 -1 -45 7 c-32 6 -38 9 -20
11 14 2 33 3 43 2 9 -1 17 1 17 4 0 11 -29 34 -43 34 -8 0 -30 7 -48 15 -39
16 -32 18 29 6 34 -7 45 -5 49 5 3 8 20 14 42 15 20 0 29 3 21 6 -8 3 -18 11
-22 17 -5 8 -8 7 -8 -1 0 -7 -8 -13 -19 -13 -14 0 -17 6 -15 28 2 15 1 21 -2
15 -4 -10 -11 -10 -26 -2 -25 14 -49 4 -42 -16 5 -13 1 -15 -22 -10 -26 6 -27
5 -12 -8 16 -12 9 -14 -58 -15 -42 0 -81 -5 -87 -11 -6 -6 -22 -11 -37 -11
-20 0 -22 -2 -10 -10 12 -8 10 -10 -9 -10 -13 0 -30 8 -38 18 -8 9 -12 11 -8
4 9 -18 -36 -32 -76 -22 l-34 8 40 1 c27 1 35 4 26 10 -11 7 -11 9 0 13 11 4
12 9 2 26 -11 18 -10 23 9 37 19 12 19 15 5 15 -9 0 -17 5 -17 10 0 6 -17 9
-37 9 l-38 -2 35 -7 35 -7 -37 -2 c-20 0 -42 -3 -50 -4 -7 -2 -10 -2 -5 0 20
12 3 23 -34 23 -35 0 -40 -3 -35 -17z"/>
<path d="M3385 1788 c-19 -11 -19 -11 0 -19 14 -5 3 -8 -32 -8 -29 -1 -53 -6
-55 -12 -3 -9 -11 -8 -28 2 -25 14 -25 14 15 19 38 6 37 6 -20 11 -33 3 -64 1
-70 -3 -6 -6 -3 -6 8 -3 19 8 25 -19 7 -30 -15 -9 17 -37 38 -33 9 2 16 10 14
16 -2 13 20 10 86 -10 18 -5 36 -7 39 -4 4 3 -9 9 -27 13 -29 5 -31 7 -15 14
27 10 37 11 31 0 -8 -12 64 -33 104 -29 26 2 35 7 34 21 -2 14 1 15 12 6 11
-9 21 -9 40 0 27 12 24 34 -3 24 -13 -5 -15 -2 -11 15 5 17 2 22 -13 22 -10 0
-19 -5 -19 -10 0 -7 -6 -7 -19 0 -26 13 -91 12 -116 -2z"/>
</g>
</svg>
